<svg xmlns="http://www.w3.org/2000/svg" viewBox="0 0 660 921" role="img" aria-label="Abstract shader card artwork">
  <defs>
    <linearGradient id="bg" x1="0" y1="0" x2="1" y2="1">
      <stop offset="0" stop-color="#271624"/>
      <stop offset="0.5" stop-color="#101822"/>
      <stop offset="1" stop-color="#050609"/>
    </linearGradient>
    <radialGradient id="hot" cx="50%" cy="42%" r="44%">
      <stop offset="0" stop-color="#ffd6a3"/>
      <stop offset="0.38" stop-color="#db746e" stop-opacity="0.7"/>
      <stop offset="1" stop-color="#000" stop-opacity="0"/>
    </radialGradient>
  </defs>
  <rect width="660" height="921" rx="34" fill="url(#bg)"/>
  <rect x="42" y="42" width="576" height="837" rx="28" fill="none" stroke="#ffd5c4" stroke-opacity="0.35" stroke-width="4"/>
  <circle cx="330" cy="400" r="250" fill="url(#hot)"/>
  <g fill="none" stroke-linecap="round">
    <path d="M114 538c92-128 152-34 216-132s138-28 216-126" stroke="#fff1d6" stroke-opacity="0.78" stroke-width="7"/>
    <path d="M128 430c86-82 142 14 206-58s130 18 198-62" stroke="#91e5ff" stroke-opacity="0.6" stroke-width="5"/>
    <path d="M134 652c92-80 148 24 218-52s122-4 176-78" stroke="#ff7faf" stroke-opacity="0.56" stroke-width="5"/>
  </g>
  <g fill="#fff" fill-opacity="0.48">
    <circle cx="154" cy="226" r="5"/>
    <circle cx="506" cy="206" r="7"/>
    <circle cx="478" cy="684" r="6"/>
    <circle cx="210" cy="710" r="4"/>
  </g>
</svg>
